<?xml version="1.0" encoding="UTF-8"?>
<svg viewBox="0 0 640 480" xmlns="http://www.w3.org/2000/svg">
 <g fill="#00f">
  <g fill-rule="evenodd">
   <polygon points="411.03 61.581 411.03 61.901 411.25 62.061 411.25 62.702 411.48 63.022 411.48 63.663 411.7 63.823 411.93 64.303 412.38 64.944 412.61 65.585 412.83 65.906 412.83 66.386 413.06 66.866 413.51 67.347 413.96 68.308 413.96 68.949 414.41 69.269 414.63 69.75 415.08 70.39 415.31 70.87 415.53 71.191 415.53 71.992 415.98 72.472 416.21 72.952 416.21 73.434 416.43 74.074 416.43 74.554 416.66 75.035 417.11 75.515 417.56 76.478 417.56 76.797 418.24 77.759 418.46 78.239 418.91 78.879 419.36 79.2 419.58 79.521 420.04 79.842 420.04 80.001 420.49 80.161 420.71 80.481 421.16 80.802 421.39 80.802 421.61 80.962 422.74 80.962 422.96 80.802 422.96 80.802 423.19 80.802 418.46 94.737 418.46 94.577 418.01 94.577 417.56 94.416 416.43 94.257 416.21 94.096 413.73 93.296 411.48 92.174 410.58 91.534 409.68 91.053 408.78 90.252 407.88 89.611 407.2 88.97 406.75 88.17 405.85 87.529 405.63 86.888 404.5 85.127 404.27 84.486 403.82 83.684 403.15 81.763 403.15 80.161 402.92 79.521 402.92 75.996 403.15 75.356 403.15 73.273 403.37 72.633 403.37 71.992 403.82 71.031 403.82 70.711 404.27 70.23 404.5 69.588 404.95 68.949 405.4 68.468 405.63 67.988 406.08 67.347 406.53 67.027 406.75 66.386 407.2 66.065 407.43 65.585 407.88 65.105 408.1 64.625 408.55 64.303 408.78 63.984 409.23 63.663 409.23 63.343 409.68 63.022 409.68 62.862 410.13 62.542 410.35 62.221 410.35 62.061 410.8 61.741 410.8 61.581"/>
   <polygon points="420.71 87.689 422.74 80.641 423.41 80.802 426.79 80.802 427.24 80.641 428.59 80.641 429.27 80.481 430.17 80.161 430.84 80.161 431.3 80.001 432.64 80.001 433.1 79.68 434.45 79.36 434.9 79.2 435.57 79.2 436.02 78.879 436.7 78.56 437.15 78.399 437.82 78.239 438.5 77.918 438.95 77.598 439.4 77.438 439.63 77.438 440.3 77.117 440.75 76.797 441.43 76.478 442.55 75.677 443.9 75.035 444.35 74.716 445.03 74.074 445.48 73.753 446.38 73.273 446.83 72.793 446.83 72.633 447.51 72.313 447.96 71.671 448.63 71.191 449.08 70.55 449.98 69.91 451.79 68.148 452.24 67.187 453.14 66.546 453.14 66.386 454.26 64.944 454.71 64.144 455.61 63.343 455.84 62.542 456.74 61.581 457.19 60.46 458.09 59.498 458.09 59.338 458.32 58.697 459.67 56.615 460.79 54.373 488.94 62.382 488.71 62.542 487.14 65.264 486.24 66.386 485.34 67.827 479.48 74.716 478.35 75.677 477.46 76.797 476.33 77.759 476.33 77.759 472.05 81.763 466.42 85.767 465.52 86.248 465.3 86.408 463.04 87.689 461.92 88.49 460.57 88.97 458.32 90.252 454.71 91.693 453.59 92.014 452.24 92.654 451.11 92.815 451.11 92.975 446.38 94.416 443.9 94.737 442.55 95.217 440.3 95.538 438.95 95.538 438.05 95.858 436.7 95.858 435.57 96.018 434.22 96.018 433.1 96.179 429.72 96.179 428.59 96.018 427.69 96.018 426.57 95.858 425.67 95.858 421.39 95.217 420.49 95.217 419.58 94.898 418.46 94.737"/>
   <polygon points="474.98 58.537 460.79 54.533 461.47 53.251 461.69 52.45 461.92 51.97 461.92 51.49 462.37 49.728 462.37 49.087 462.59 48.126 462.59 45.563 462.37 45.082 462.37 44.281 461.92 42.84 461.92 42.2 461.47 41.399 461.24 40.757 460.79 39.957 460.79 39.797 460.57 39.476 460.34 38.836 459.44 37.555 458.99 37.075 458.32 36.594 458.09 35.793 457.42 35.472 456.96 34.831 456.74 34.831 456.29 34.512 455.84 34.03 453.59 32.429 452.69 32.109 452.24 31.787 451.56 31.468 451.11 31.468 451.11 31.468 450.21 30.987 449.76 30.827 449.08 30.667 448.63 30.667 447.96 30.506 447.51 30.347 446.38 30.347 445.71 30.186 444.35 30.186 443.9 30.347 442.78 30.347 441.88 30.667 441.43 30.667 440.75 30.827 440.75 30.987 440.08 31.148 439.4 31.468 438.95 31.628 437.6 32.268 436.25 33.23 435.57 33.55 412.61 15.771 415.53 13.689 423.64 9.844 425.89 9.2035 427.92 8.4026 428.37 8.4026 430.17 7.7622 436.7 6.6405 439.18 6.4802 441.43 6.1604 443.68 6 445.93 6 449.76 6.3198 450.21 6.3198 452.46 6.6405 454.71 6.8009 460.79 8.2423 466.65 10.165 473.63 13.529 476.78 15.45 483.31 20.897 483.54 21.217 484.66 22.337 485.79 23.78 487.14 24.9 490.74 30.506 491.19 31.949 492.54 34.831 494.12 41.079 494.12 42.681 494.34 44.281 494.12 45.563 494.12 47.645 493.89 49.247 492.99 52.611 492.77 54.213 492.09 55.814 491.64 57.416 491.19 58.057 490.74 59.178 488.94 62.382"/>
   <polygon points="403.15 53.572 400.45 53.572 395.04 54.533 386.71 56.776 386.48 56.776 384.01 56.936 371.18 59.498 370.27 59.498 367.12 60.299 363.97 60.78 357.66 62.382 355.86 63.022 354.29 63.183 341 67.027 340.78 67.187 316.23 75.836 313.3 77.278 312.86 77.438 300.92 83.365 290.34 89.932 289.21 90.412 281.33 96.179 279.08 98.262 278.4 98.421 276.15 100.82 273.45 103.07 264.22 113.64 262.87 115.72 262.19 116.52 257.01 125.33 257.01 125.49 252.96 135.42 252.74 135.42 250.26 145.67 248.91 158.49 249.13 167.3 215.13 167.94 215.13 153.04 216.71 143.27 216.71 142.47 220.31 129.82 220.54 129.5 225.94 117.32 230.67 109.63 239 98.901 244.18 93.616 245.53 92.654 248.68 89.451 255.66 83.845 267.15 76.157 271.2 74.074 275.03 71.671 287.41 65.746 300.47 60.62 316.91 55.655 316.91 55.655 333.34 51.97 333.8 51.81 351.14 49.087 364.2 47.966 383.33 47.966 386.26 48.286 386.48 48.286 397.52 51.009 399.32 51.97 402.02 52.932"/>
   <polygon points="217.16 194.04 217.16 193.88 218.28 193.88 220.08 193.56 221.66 193.56 224.81 193.24 228.87 193.24 231.12 192.92 233.6 192.92 236.3 192.6 242.15 192.44 254.76 193.24 258.14 193.24 265.57 193.88 266.47 193.88 309.25 198.37 313.3 199.17 321.64 200.13 348.88 205.26 372.08 211.5 383.33 215.83 388.29 218.55 394.59 223.36 397.52 227.52 398.64 229.92 399.32 232.49 399.32 235.85 399.1 236.65 384.91 234.89 370.27 234.25 369.37 233.45 369.37 233.29 368.47 232.65 359.92 228.64 355.19 226.88 353.16 226.4 352.48 226.08 309.7 214.71 307.9 214.55 240.12 200.77 217.61 194.04"/>
   <polygon points="384.91 234.89 399.1 236.65 397.07 243.22 395.94 244.98 395.72 245.94 384.91 263.08 384.46 263.4 373.43 277.66 372.53 278.46 345.73 307.45 345.28 308.09 299.57 348.29 297.32 349.74 295.29 351.34 292.82 352.78 290.79 354.22 282.46 358.71 280.2 359.67 278.18 360.79 273.22 362.23 270.3 362.87 262.19 339.16 263.54 338.68 264.44 338.2 265.57 337.4 266.92 336.76 273.45 332.44 273.68 332.44 279.3 328.11 281.56 326.67 288.09 321.55 289.21 320.42 290.34 319.62 303.85 307.61 304.52 307.45 357.66 252.99 357.89 252.51 365.99 242.1 368.25 238.41 368.47 237.61 369.15 236.49 369.6 235.37 370.27 234.25"/>
   <polygon points="387.84 93.296 387.61 93.296 387.61 93.776 387.16 94.416 386.71 94.737 386.48 95.217 386.48 95.698 385.81 96.179 384.24 98.901 384.01 99.542 382.43 102.1 380.41 104.51 378.83 105.95 376.58 108.51 375.68 109.31 375.68 109.63 375.23 110.27 373.43 112.04 372.75 112.84 372.08 113.96 371.18 114.76 370.72 115.72 369.82 116.68 369.6 116.68 369.37 117.48 367.34 120.04 365.54 123.57 365.32 123.89 365.32 124.37 364.87 125.17 364.42 126.77 364.42 127.41 363.97 128.7 363.97 129.33 364.2 129.82 364.2 130.3 364.42 130.94 364.42 131.26 364.64 131.74 364.87 132.06 364.87 132.54 365.99 133.34 365.99 133.66 366.22 133.66 367.12 134.3 345.5 145.83 345.28 145.67 344.83 145.51 344.38 144.39 343.03 143.11 339.87 137.02 339.2 132.54 339.2 131.1 339.65 128.53 339.65 128.05 339.87 126.77 340.78 124.05 343.48 119.08 344.83 117.16 345.5 116.68 346.4 115.72 348.21 113.32 352.71 109.31 353.61 108.67 353.84 108.35 356.31 106.59 357.44 105.63 361.04 103.07 363.52 101.78 363.52 101.62 365.99 100.34 367.12 99.542 369.6 98.262 370.95 97.78 373.2 96.498 374.32 96.179 374.32 96.179 379.28 94.898 380.41 94.737 381.53 94.416 384.91 93.776 385.36 93.616 386.26 93.616 386.71 93.456 387.16 93.456 387.39 93.296"/>
   <polygon points="356.09 139.91 366.67 133.66 367.57 134.62 368.25 134.94 368.7 135.26 375.45 137.82 376.8 138.14 378.38 138.78 379.96 139.1 380.18 139.26 398.42 143.11 400.45 143.27 401.8 143.59 413.28 145.19 414.63 145.51 417.11 145.67 421.84 146.31 424.31 146.47 424.99 146.63 437.15 147.91 438.5 147.91 440.53 148.24 447.28 148.72 449.08 149.04 451.11 149.04 460.57 149.84 463.27 149.84 466.2 150.16 467.32 150.16 468.67 150.32 470.48 150.32 471.38 150.48 472.73 150.48 472.95 150.64 473.63 150.64 471.15 174.66 470.02 174.66 469.35 174.5 465.52 174.5 463.04 174.18 461.69 174.18 458.32 173.86 456.96 173.86 449.08 173.22 447.28 172.9 445.03 172.9 419.36 169.7 418.46 169.7 415.76 169.38 413.28 168.74 410.58 168.42 408.1 167.94 405.4 167.62 402.92 166.98 400.22 166.66 393.69 165.21 392.34 165.05 387.39 163.77 384.68 163.29 380.63 162.17 379.73 162.01 368.02 158.33 367.8 158.33 365.99 157.53 363.52 156.72 355.64 153.04 354.74 152.4 353.61 152.08 348.43 148.56 346.86 147.28 345.5 145.83"/>
   <polygon points="488.26 122.29 488.26 122.29 488.71 122.29 489.16 122.45 489.39 122.45 489.84 122.61 490.74 122.61 491.64 122.77 492.09 122.93 492.77 122.93 495.02 123.41 495.47 123.41 495.69 123.57 496.15 123.73 496.6 124.05 497.94 124.69 498.39 125.01 499.07 125.17 500.2 125.97 500.87 126.13 501.55 126.61 501.77 126.93 503.35 127.73 503.58 127.73 503.8 128.05 504.48 128.53 505.15 128.7 508.3 130.94 508.76 131.1 509.66 131.58 512.13 133.34 513.48 133.98 513.71 134.3 513.93 134.46 514.61 134.62 515.28 135.1 516.63 135.74 517.09 136.06 517.09 136.22 517.99 136.38 518.44 136.86 519.11 137.02 519.56 137.5 520.24 137.66 520.69 137.98 521.36 138.14 522.71 138.78 523.16 138.78 523.84 139.1 524.06 139.26 506.28 157.37 506.28 157.37 506.28 157.2 505.6 156.88 503.8 155.6 501.77 154.48 500.87 153.84 500.2 153.2 499.97 153.04 497.94 151.12 497.05 150.48 496.6 149.84 496.15 149.68 495.69 149.04 495.02 148.4 494.57 147.76 493.22 146.47 492.99 146.15 492.77 145.67 492.09 145.03 490.74 142.95 490.29 142.47 489.61 141.51 489.39 140.87 488.49 139.59 488.26 138.78 487.36 137.5 486.68 135.42 486.24 134.78 485.79 133.66 485.79 132.86 485.34 131.74 485.34 130.46 485.11 129.98 485.11 129.5 484.89 128.85 484.89 127.89 484.66 127.41 484.66 127.25 485.11 126.93 485.34 126.29 485.79 125.97 485.79 125.33 486.24 125.01 486.46 124.37 486.68 124.05 487.14 123.73 487.14 123.41 487.36 123.09 487.59 122.93 487.81 122.61 487.81 122.61 488.04 122.29"/>
   <polygon points="515.28 148.24 524.06 139.26 524.74 139.59 526.09 139.91 526.54 140.23 528.57 140.71 529.02 140.87 529.7 141.19 529.92 141.19 530.15 141.35 530.6 141.35 531.27 141.67 531.72 141.67 532.4 141.99 532.85 141.99 533.3 142.15 533.52 142.15 533.97 142.31 534.42 142.31 535.1 142.47 535.32 142.63 536 142.63 536.22 142.79 536.68 142.95 536.9 142.95 537.35 143.11 538.25 143.11 538.7 143.27 539.38 143.27 539.83 143.43 540.05 143.43 540.95 143.75 542.3 143.75 542.53 143.91 544.33 143.91 544.33 144.07 545.91 144.07 545.23 168.42 542.75 168.42 542.3 168.26 541.63 168.26 541.18 168.1 540.28 168.1 539.83 167.94 538.93 167.94 538.48 167.78 537.35 167.78 536.68 167.62 536.22 167.62 535.55 167.46 535.1 167.3 534.2 167.3 533.52 167.14 533.07 166.98 532.4 166.98 531.5 166.82 531.04 166.66 527.22 165.85 526.54 165.54 524.96 165.21 524.29 164.89 523.16 164.73 522.71 164.41 521.82 164.25 520.92 163.93 520.24 163.61 519.79 163.45 519.34 163.45 518.44 163.13 517.54 162.65 516.86 162.49 515.96 162.01 515.06 161.85 514.61 161.37 514.16 161.37 513.48 160.89 512.36 160.57 511.68 160.09 510.78 159.61 509.88 159.29 509.43 158.97 508.98 158.81 508.3 158.33 507.18 157.85 506.28 157.37"/>
   <polygon points="193.52 286.63 193.74 287.75 194.42 288.71 194.64 289.83 195.77 292.07 195.77 293.36 196.67 295.6 197.12 298.16 197.79 299.44 198.24 301.84 198.24 303.12 198.69 304.25 199.14 306.97 199.14 308.25 199.37 309.05 199.37 309.53 199.59 310.81 199.59 312.26 200.04 314.98 200.04 318.98 200.27 320.26 200.27 326.03 200.04 327.47 200.04 331.96 199.59 334.52 199.59 335.96 199.37 337.4 199.37 339 199.14 340.45 199.14 341.89 198.69 343.33 198.69 344.77 198.24 346.37 198.24 347.82 196.67 354.7 196.67 355.18 194.42 364.47 193.74 365.91 193.52 367.35 191.26 373.6 191.04 374.88 188.56 374.72 186.31 374.08 187.44 371.2 188.34 369.6 193.74 354.86 193.74 354.38 194.19 353.42 194.64 351.98 194.87 350.54 195.77 347.5 195.99 346.05 196.44 344.61 197.12 340.28 197.57 338.84 197.79 337.24 198.24 335.8 198.24 334.52 198.69 331.8 198.69 330.19 199.14 327.31 199.14 326.03 199.37 324.43 199.37 313.54 199.14 312.26 199.14 309.05 198.69 306.97 198.69 305.69 198.24 304.41 198.24 303.28 197.79 300.72 197.34 299.44 196.67 295.6 195.77 293.36 195.54 292.07 194.64 289.83 194.42 288.71 193.74 287.75"/>
   <polygon points="188.56 374.72 191.04 374.88 189.91 377.28 189.91 377.77 170.55 415.73 166.94 420.05 166.94 420.53 151.41 438.63 149.38 440.4 147.58 442.32 131.37 455.13 127.09 457.85 126.41 458.17 125.06 459.14 120.33 461.7 118.08 462.66 113.8 464.9 104.57 468.43 95.116 470.67 94.89 470.83 87.46 471.95 79.578 472.27 74.85 471.95 72.147 471.95 66.968 471.15 66.743 470.99 66.519 470.99 72.824 455.61 76.201 456.41 79.353 456.73 80.705 456.73 83.632 457.05 85.432 456.89 87.009 456.89 90.386 456.57 90.386 456.57 97.367 455.45 101.19 454.33 103 454.01 104.8 453.21 108.63 451.93 118.76 447.44 130.92 440.24 138.8 434.47 138.8 434.31 140.6 432.71 142.85 431.1 157.71 416.69 158.16 416.53 173.7 396.67 183.83 379.37 184.96 376.64 185.18 376.32 186.31 374.08"/>
   <polygon points="69.896 463.3 66.519 470.99 62.24 470.19 55.035 467.94 48.279 465.06 40.399 460.26 34.994 455.93 33.419 454.33 31.617 452.89 22.159 440.4 17.882 432.39 17.205 430.3 16.08 428.22 15.405 425.82 14.954 425.02 14.728 423.74 13.828 421.5 11.126 409.8 11.126 407.4 10.451 405 10 387.06 12.702 365.27 13.604 362.55 13.828 359.67 20.584 339.8 20.584 339.8 53.233 346.69 49.405 356.78 48.955 357.58 43.776 376.48 41.75 390.58 42.199 413.97 42.65 415.89 42.876 417.97 43.552 420.69 43.552 421.66 45.127 426.94 46.028 428.54 48.506 434.95 49.405 436.23 50.081 437.83 51.658 439.91 51.883 440.4 53.684 442.96 54.584 443.92 55.486 445.2 56.837 446.16 57.736 447.12 58.863 448.08 59.763 449.04 60.89 449.85 62.24 450.64 63.14 451.45 64.491 452.25 66.968 453.21 67.419 453.69 68.094 454.01 69.445 454.33 71.922 455.29 73.499 455.77"/>
   <polygon points="36.795 343.17 20.584 339.8 25.312 328.75 25.536 328.75 32.743 315.3 33.867 313.86 34.319 312.9 37.696 307.77 38.822 306.49 41.074 302.96 43.1 300.72 44.676 298.32 54.584 287.27 56.386 285.67 56.837 285.34 60.89 281.18 78.903 267.09 79.353 266.92 83.632 264.04 86.108 262.76 87.91 261.48 88.585 261.48 90.837 260.04 97.816 256.67 108.4 252.67 108.4 252.51 115.83 250.43 118.31 249.95 120.11 249.47 121.01 249.47 132.27 248.02 135.87 248.02 144.88 248.82 150.06 251.07 153.88 253.15 155.24 254.27 155.46 254.27 153.21 254.59 146.9 256.35 145.1 257.16 144.43 257.31 143.3 257.48 141.72 257.96 139.7 258.28 138.35 258.92 136.55 259.4 135.87 259.72 134.75 259.72 133.17 260.52 131.37 261 127.99 262.28 127.54 262.6 124.84 264.04 123.04 264.68 121.46 265.64 119.88 266.44 119.66 266.6 117.86 267.41 112.9 270.61 112.9 270.77 105.92 275.58 97.592 282.46 96.241 284.06 94.214 285.5 93.764 286.31 92.639 287.11 87.91 292.07 87.91 292.07 86.108 293.83 83.181 297.68 82.731 298 73.724 309.37 73.273 310.49 57.736 336.6 57.736 336.76 56.386 339.16 53.233 346.69"/>
   <polygon points="624.27 286.63 626.52 292.07 626.74 293.36 627.64 295.6 628.1 298.16 628.54 299.44 629.22 303.12 629.67 304.25 629.67 305.69 629.9 306.97 629.9 308.25 630.12 309.05 630.34 309.53 630.57 310.81 630.57 312.26 631.02 314.98 631.02 331.96 630.57 334.52 630.57 335.96 629.9 340.45 629.9 341.89 629.67 343.33 629.67 344.77 628.54 349.26 628.54 350.86 627.64 353.74 627.64 354.7 627.42 355.18 627.19 356.94 626.29 359.83 626.07 361.43 623.36 370.56 622.69 372 621.79 374.88 619.54 374.72 617.29 374.08 617.74 372.48 619.76 368.16 620.21 366.71 620.89 365.27 621.34 363.67 622.01 362.23 622.46 360.79 623.82 357.91 624.04 356.3 624.72 354.86 624.72 354.38 628.54 338.84 628.54 337.24 629 335.8 629.67 331.8 629.67 328.75 629.9 327.31 629.9 326.03 630.12 324.43 630.12 321.87 630.34 320.26 630.34 316.26 630.12 314.98 630.12 313.54 629.9 312.26 629.9 309.05 629.67 308.25 629.67 305.69 629.22 304.41 628.1 298.16 627.64 297.04 627.19 294.63"/>
   <polygon points="619.54 374.72 621.79 374.88 620.89 377.28 620.89 377.77 611.43 398.75 610.98 399.23 610.08 401.31 599.72 417.97 597.92 420.05 597.7 420.53 584.19 436.71 568.65 450.64 555.81 459.14 547.03 463.78 535.32 468.43 525.87 470.67 525.64 470.83 518.21 471.95 510.56 472.27 505.6 471.95 502.9 471.95 497.94 471.15 497.72 470.99 497.49 470.99 503.8 455.61 507.18 456.41 510.1 456.73 511.68 456.73 514.61 457.05 516.18 456.89 517.99 456.89 521.14 456.57 521.36 456.57 522.94 456.41 530.15 454.97 531.94 454.33 533.75 454.01 541.63 451.13 543.43 450.16 545.68 449.37 547.03 448.72 547.48 448.4 553.56 445.2 555.36 443.92 557.62 442.8 561.67 440.24 563.7 438.63 565.72 437.35 567.52 435.91 569.78 434.47 569.78 434.31 581.48 424.22 588.69 416.69 588.92 416.53 604.23 397.15 617.29 374.08"/>
   <polygon points="500.87 463.3 497.49 470.99 492.99 470.19 485.79 467.94 477.23 463.94 473.18 461.54 469.35 458.82 467.77 457.37 465.75 455.93 464.4 454.33 462.59 452.89 459.44 449.53 459.22 448.88 454.26 442.16 448.63 432.39 447.96 430.14 447.06 428.06 446.38 425.82 445.93 425.02 441.65 407.24 441.88 373.6 442.55 370.72 442.78 368 446.83 351.98 447.28 351.34 451.11 339.8 451.11 339.8 483.76 346.69 479.93 356.78 479.93 357.43 474.3 378.57 474.3 378.73 473.63 383.53 472.95 385.78 472.95 413.97 474.08 419.73 474.53 420.69 474.53 421.66 475.2 423.26 475.43 425.18 476.1 426.78 476.56 428.54 477.46 430.14 477.9 431.91 478.81 433.35 480.16 436.23 482.41 439.91 482.86 440.4 483.54 441.68 485.56 443.92 486.46 445.2 487.59 446.16 488.49 447.12 490.74 449.04 494.12 451.45 495.47 452.25 497.94 453.21 498.17 453.69 504.25 455.77"/>
   <polygon points="467.77 343.17 451.11 339.8 456.06 328.75 456.06 328.75 464.4 313.86 465.3 312.9 466.65 310.33 477.46 295.92 480.83 292.39 481.28 291.43 487.14 285.67 487.59 285.34 502.67 272.05 509.88 267.09 510.1 267.09 514.61 264.04 517.09 262.76 518.89 261.48 519.56 261.48 521.82 260.04 524.29 258.92 526.54 257.64 528.79 256.67 529.02 256.51 539.15 252.67 539.38 252.51 546.81 250.43 549.28 249.95 551.09 249.47 551.76 249.47 554.46 249.15 556.94 248.66 559.42 248.5 561.89 248.18 563.25 248.18 564.37 248.02 574.05 248.66 575.86 248.98 582.84 252.03 586.44 254.43 584.19 254.75 577.88 256.35 575.4 257.31 572.48 258.12 570.68 258.44 567.3 259.4 566.62 259.72 565.72 259.88 563.92 260.68 560.54 261.8 550.64 266.44 550.64 266.6 548.83 267.41 545.68 269.49 543.66 270.61 543.43 270.77 542.3 271.73 540.28 273.01 537.12 275.42 536.9 275.74 530.15 281.02 528.79 282.46 526.77 284.06 525.42 285.5 524.29 286.31 523.61 287.27 521.82 288.71 520.46 290.47 518.89 292.07 518.66 292.07 513.93 297.68 513.48 298 509.2 303.28 508.76 304.08 507.63 305.37 499.52 316.9 483.76 346.69"/>
   <polygon points="441.88 255.55 441.88 256.19 442.78 260.68 442.78 261 441.2 265.48 441.2 265.64 439.18 269.49 439.18 269.97 436.7 273.97 436.7 274.13 431.97 281.34 431.74 282.14 426.34 289.67 425.89 289.99 420.04 297.84 419.58 298.64 417.11 301.68 417.11 301.84 414.41 304.89 413.96 305.69 411.93 308.25 410.8 309.37 407.88 313.22 400.9 320.59 400.45 321.22 391.21 331.16 390.76 331.8 368.7 353.42 368.47 353.58 349.11 371.04 348.88 371.04 331.32 361.59 347.98 343.33 348.21 343.17 377.48 310.65 377.93 310.01 380.41 307.45 381.53 306.49 388.29 298.96 389.42 298 395.04 292.07 395.27 291.91 406.08 281.18 406.3 281.02 409.23 278.46 411.48 275.89 413.73 274.29 413.96 273.65 416.43 271.25 417.56 270.77 418.91 269.17 421.39 267.41 421.39 267.24 429.72 260.68 431.74 259.56 434.45 257.64 435.35 257.31 440.3 256.03 441.65 255.55"/>
  </g>
  <g stroke="#000" stroke-linecap="square" stroke-miterlimit="10" stroke-width=".121">
   <polyline points="441.88 255.55 441.88 256.19 442.78 260.68 442.78 261 441.2 265.48 441.2 265.64 439.18 269.49 439.18 269.97 436.7 273.97 436.7 274.13 431.97 281.34 431.74 282.14 426.34 289.67 425.89 289.99 420.04 297.84 419.58 298.64 417.11 301.68 417.11 301.84 414.41 304.89 413.96 305.69 411.93 308.25 410.8 309.37 407.88 313.22 400.9 320.59 400.45 321.22 391.21 331.16 390.76 331.8 368.7 353.42 368.47 353.58 365.32 356.62"/>
   <polyline points="365.32 356.62 349.11 371.04 348.88 371.04"/>
   <polyline points="331.32 361.59 347.98 343.33 348.21 343.17 377.48 310.65 377.93 310.01 380.41 307.45 381.53 306.49 388.29 298.96 389.42 298 395.04 292.07 395.27 291.91 406.08 281.18 406.3 281.02 409.23 278.46 411.48 275.89 413.73 274.29 413.96 273.65 416.43 271.25 417.56 270.77 418.91 269.17 421.39 267.41 421.39 267.24 429.72 260.68 431.74 259.56 434.45 257.64 435.35 257.31 437.15 256.84"/>
   <polyline points="437.15 256.84 440.3 256.03 441.65 255.55 441.88 255.55"/>
  </g>
  <polygon points="340.1 366.23 348.88 371.04 318.04 394.1 317.58 394.26 308.13 398.91 303.62 400.35 298.9 400.99 297.99 400.99 297.99 396.03 297.32 391.22 298.9 390.9 300.25 389.94 302.95 388.34 306.32 385.78 306.78 385.62 317.58 375.68 319.16 374.56 331.32 361.59" fill-rule="evenodd"/>
  <g stroke="#000" stroke-linecap="square" stroke-miterlimit="10" stroke-width=".121">
   <polyline points="348.88 371.04 318.04 394.1 317.58 394.26 308.13 398.91 303.62 400.35 298.9 400.99 297.99 400.99"/>
   <polyline points="297.32 391.22 298.9 390.9 300.25 389.94 302.95 388.34 306.32 385.78 306.78 385.62 317.58 375.68 319.16 374.56 331.32 361.59"/>
  </g>
  <polygon points="297.99 396.03 297.99 400.99 295.29 400.99 293.49 400.83 291.69 400.51 289.89 400.51 277.5 399.39 276.6 399.23 260.16 397.79 259.04 397.47 257.24 397.47 240.35 395.71 238.77 395.39 222.56 393.94 222.11 393.78 197.12 391.7 194.42 391.22 191.26 390.9 188.56 390.9 185.41 390.58 184.96 390.58 182.71 390.26 167.62 389.14 165.59 388.82 163.34 388.82 161.32 388.66 159.51 388.34 156.36 388.34 154.78 388.18 153.43 388.18 150.06 387.7 147.8 387.7 150.96 387.7 154.78 388.18 156.36 388.18 157.71 388.34 282.01 391.7 284.48 391.54 288.54 391.54 290.56 391.38 292.14 391.38 293.94 391.22 297.32 391.22" fill-rule="evenodd"/>
  <g stroke="#000" stroke-linecap="square" stroke-miterlimit="10" stroke-width=".121">
   <polyline points="297.99 400.99 295.29 400.99 293.49 400.83 291.69 400.51 289.89 400.51 277.5 399.39 276.6 399.23 260.16 397.79 259.04 397.47 257.24 397.47 240.35 395.71 238.77 395.39 222.56 393.94 222.11 393.78 197.12 391.7 194.42 391.22 191.26 390.9 188.56 390.9 185.41 390.58 184.96 390.58 182.71 390.26 167.62 389.14 165.59 388.82 163.34 388.82 161.32 388.66 159.51 388.34"/>
   <polyline points="159.51 388.34 156.36 388.34 154.78 388.18 153.43 388.18 150.06 387.7 147.8 387.7 150.96 387.7 154.78 388.18 156.36 388.18 157.71 388.34 254.76 391.54"/>
   <polyline points="254.76 391.54 282.01 391.7 284.48 391.54 288.54 391.54 290.56 391.38 292.14 391.38 293.94 391.22 297.32 391.22"/>
  </g>
  <polygon points="139.25 375.2 139.02 374.88 138.8 374.72 137.9 371.52 137.45 370.56 137.67 370.24 138.12 368.96 138.35 367.52 138.35 367.2 139.02 365.91 139.7 364.15 139.7 363.99 142.85 358.54 143.08 357.75 144.2 356.46 146.9 351.98 147.13 351.98 148.93 349.58 149.16 349.09 158.16 337.88 158.84 337.24 161.09 334.36 183.16 312.58 184.51 311.61 192.16 304.41 193.06 303.93 201.84 296.4 201.84 296.4 229.99 275.1 230.44 274.93 244.85 265.32 250.48 262.28 252.96 260.68 262.42 256.03 268.27 253.95 273.9 253.15 274.35 253.15 274.35 255.55 274.8 257.96 273.22 258.12 272.55 258.28 271.42 258.92 270.07 259.4 265.34 262.12 258.36 267.56 258.14 267.89 251.83 273.33 250.26 275.1 249.81 275.42 242.83 282.46 242.6 282.78 235.62 289.83 235.17 290.47 228.19 298 227.74 298.32 220.54 306.33 220.54 306.49 213.1 314.34 212.66 314.98 180.68 347.82 180.23 348.46 178.2 350.06 175.72 352.46 174.38 353.42 171.9 355.98 163.34 362.87 162.89 363.35 161.09 364.47 159.06 366.23 149.16 372.48 146 374.08 145.55 374.24 144.2 374.56 140.82 374.88 139.92 374.88 139.25 375.04" fill-rule="evenodd"/>
  <g stroke="#000" stroke-linecap="square" stroke-miterlimit="10" stroke-width=".121">
   <polyline points="139.25 375.2 139.02 374.88 138.8 374.72 137.9 371.52 137.45 370.56 137.67 370.24 138.12 368.96 138.35 367.52 138.35 367.2 139.02 365.91 139.7 364.15 139.7 363.99 142.85 358.54 143.08 357.75 144.2 356.46 146.9 351.98 147.13 351.98 148.93 349.58 149.16 349.09 158.16 337.88 158.84 337.24 161.09 334.36 183.16 312.58 184.51 311.61 192.16 304.41 193.06 303.93 201.84 296.4 201.84 296.4 208.38 291.27"/>
   <polyline points="208.38 291.27 229.99 275.1 230.44 274.93 244.85 265.32 250.48 262.28 252.96 260.68 262.42 256.03 268.27 253.95 273.9 253.15 274.35 253.15"/>
   <polyline points="274.8 257.96 273.22 258.12 272.55 258.28 271.42 258.92 270.07 259.4 265.34 262.12 258.36 267.56 258.14 267.89 251.83 273.33 250.26 275.1 249.81 275.42 242.83 282.46 242.6 282.78 235.62 289.83 235.17 290.47 228.19 298 227.74 298.32 220.54 306.33 220.54 306.49 213.1 314.34 212.66 314.98 180.68 347.82 180.23 348.46 178.2 350.06 177.3 351.02"/>
   <polyline points="177.3 351.02 175.72 352.46 174.38 353.42 171.9 355.98 163.34 362.87 162.89 363.35 161.09 364.47 159.06 366.23 149.16 372.48 146 374.08 145.55 374.24 144.2 374.56 140.82 374.88 139.92 374.88 139.25 375.04 139.25 375.2"/>
  </g>
  <polygon points="274.35 255.55 274.35 253.15 275.7 253.31 277.28 253.31 278.18 253.47 279.53 253.47 280.88 253.63 282.01 253.63 283.36 253.79 286.51 253.79 287.86 253.95 289.21 253.95 290.56 254.11 292.14 254.11 293.72 254.27 296.42 254.27 299.57 254.59 305.42 254.59 307 254.75 308.35 254.75 309.7 254.91 314.2 254.91 315.56 255.07 316.91 255.07 318.04 255.23 318.04 255.23 320.96 255.23 322.31 255.39 330.87 255.39 331.32 255.55 344.83 255.55 331.32 255.55 330.87 255.71 322.31 255.71 320.96 255.87 318.04 255.87 318.04 255.87 316.91 256.03 312.63 256.03 311.28 256.19 309.7 256.19 308.35 256.35 302.5 256.35 301.15 256.51 299.57 256.51 297.99 256.67 295.07 256.67 292.14 256.99 290.56 256.99 289.21 257.16 284.93 257.16 283.36 257.31 282.01 257.31 279.53 257.64 278.18 257.64 277.28 257.8 275.7 257.8 274.35 257.96" fill-rule="evenodd"/>
  <g stroke="#000" stroke-linecap="square" stroke-miterlimit="10" stroke-width=".121">
   <polyline points="274.35 253.15 275.7 253.31 277.28 253.31 278.18 253.47 279.53 253.47 280.88 253.63 282.01 253.63 283.36 253.79 286.51 253.79 287.86 253.95 289.21 253.95 290.56 254.11 292.14 254.11 293.72 254.27 296.42 254.27 299.57 254.59 305.42 254.59 307 254.75 308.35 254.75 309.7 254.91 314.2 254.91 315.56 255.07 316.91 255.07 318.04 255.23 318.04 255.23 320.96 255.23 322.31 255.39 330.87 255.39 331.32 255.55 342.13 255.55"/>
   <polyline points="342.13 255.55 344.83 255.55 331.32 255.55 330.87 255.71 322.31 255.71 320.96 255.87 318.04 255.87 318.04 255.87 316.91 256.03 312.63 256.03 311.28 256.19 309.7 256.19 308.35 256.35 302.5 256.35 301.15 256.51 299.57 256.51 297.99 256.67 295.07 256.67"/>
   <polyline points="295.07 256.67 292.14 256.99 290.56 256.99 289.21 257.16 284.93 257.16 283.36 257.31 282.01 257.31 279.53 257.64 278.18 257.64 277.28 257.8 275.7 257.8 274.35 257.96"/>
  </g>
  <polygon points="280.2 278.62 284.93 280.06 286.96 281.34 290.56 285.67 291.46 287.11 292.82 289.99 295.29 300.24 295.29 313.54 286.51 358.39 286.51 359.67 285.84 364.15 285.84 373.12 286.06 373.12 284.48 361.27 283.58 358.39 283.13 355.5 278.4 342.37 278.18 340.77 272.78 326.19 272.55 324.59 271.87 323.31 268.95 311.61 268.72 308.41 268.27 306.97 268.27 305.69 267.82 302.48 267.82 298.16 268.95 292.07 268.95 290.63 271.42 284.86 273.68 281.82 275.48 280.22" fill-rule="evenodd"/>
  <g stroke="#000" stroke-linecap="square" stroke-miterlimit="10" stroke-width=".121">
   <polyline points="280.2 278.62 284.93 280.06 286.96 281.34 290.56 285.67 291.46 287.11 292.82 289.99 295.29 300.24 295.29 313.54 286.51 358.39 286.51 359.67 285.84 364.15 285.84 373.12 286.06 373.12 284.48 361.27 283.58 358.39 283.13 355.5 281.56 351.02"/>
   <polyline points="281.56 351.02 278.4 342.37 278.18 340.77 272.78 326.19 272.55 324.59 271.87 323.31 268.95 311.61 268.72 308.41 268.27 306.97 268.27 305.69 267.82 302.48 267.82 298.16 268.95 292.07 268.95 290.63 271.42 284.86 273.68 281.82 275.48 280.22 280.2 278.62"/>
  </g>
  <polygon points="483.31 215.67 488.26 217.11 490.74 218.87 492.99 220.96 499.97 231.21 504.7 241.94 505.15 243.86 506.28 246.1 507.85 252.67 508.76 254.75 522.26 347.5 524.29 354.22 479.93 252.19 478.81 247.86 478.58 245.78 477.46 241.46 476.33 230.08 477.9 220.96 479.03 218.55" fill-rule="evenodd"/>
  <g stroke="#000" stroke-linecap="square" stroke-miterlimit="10" stroke-width=".121">
   <polyline points="483.31 215.67 488.26 217.11 490.74 218.87 492.99 220.96 499.97 231.21 504.7 241.94 505.15 243.86 506.28 246.1 507.85 252.67 508.76 254.75 522.26 347.5 524.29 354.22 511.68 322.02 510.56 320.1"/>
   <polyline points="510.56 320.1 489.61 277.98 478.81 247.86 478.58 245.78 477.46 241.46 476.33 230.08 477.9 220.96 479.03 218.55 483.31 215.67"/>
  </g>
  <polygon points="436.02 188.44 437.6 184.92 438.95 183.63 440.53 182.51 442.1 181.71 445.25 180.59 447.06 179.79 448.63 179.47 450.21 178.99 452.01 178.83 453.59 178.35 460.12 177.71 475.2 177.71 496.82 180.11 498.39 180.59 525.42 183.96 528.79 183.96 532.17 184.28 542.08 184.28 538.7 184.28 473.18 196.29 468.22 196.77 466.65 196.77 463.27 197.09 458.32 197.09 454.94 196.77 453.36 196.77 451.56 196.45 449.98 196.29 443.23 194.53 441.43 193.88 439.63 192.92 438.05 191.64" fill-rule="evenodd"/>
  <g stroke="#000" stroke-linecap="square" stroke-miterlimit="10" stroke-width=".121">
   <polyline points="436.02 188.44 437.6 184.92 438.95 183.63 440.53 182.51 442.1 181.71 445.25 180.59 447.06 179.79 448.63 179.47 450.21 178.99 452.01 178.83 453.59 178.35 460.12 177.71 475.2 177.71 496.82 180.11 498.39 180.59 525.42 183.96 528.79 183.96 532.17 184.28 542.08 184.28 538.7 184.28 517.31 187.32"/>
   <polyline points="517.31 187.32 473.18 196.29 468.22 196.77 466.65 196.77 463.27 197.09 458.32 197.09 454.94 196.77 453.36 196.77 451.56 196.45 449.98 196.29 443.23 194.53 441.43 193.88 439.63 192.92 438.05 191.64 436.02 188.44"/>
  </g>
 </g>
</svg>
